ffmpeg version 3.4.8-0ubuntu0.2 Copyright (c) 2000-2020 the FFmpeg developers
  built with gcc 7 (Ubuntu 7.5.0-3ubuntu1~18.04)
  configuration: --prefix=/usr --extra-version=0ubuntu0.2 --toolchain=hardened --libdir=/usr/lib/x86_64-linux-gnu --incdir=/usr/include/x86_64-linux-gnu --enable-gpl --disable-stripping --enable-avresample --enable-avisynth --enable-gnutls --enable-ladspa --enable-libass --enable-libbluray --enable-libbs2b --enable-libcaca --enable-libcdio --enable-libflite --enable-libfontconfig --enable-libfreetype --enable-libfribidi --enable-libgme --enable-libgsm --enable-libmp3lame --enable-libmysofa --enable-libopenjpeg --enable-libopenmpt --enable-libopus --enable-libpulse --enable-librubberband --enable-librsvg --enable-libshine --enable-libsnappy --enable-libsoxr --enable-libspeex --enable-libssh --enable-libtheora --enable-libtwolame --enable-libvorbis --enable-libvpx --enable-libwavpack --enable-libwebp --enable-libx265 --enable-libxml2 --enable-libxvid --enable-libzmq --enable-libzvbi --enable-omx --enable-openal --enable-opengl --enable-sdl2 --enable-libdc1394 --enable-libdrm --enable-libiec61883 --enable-chromaprint --enable-frei0r --enable-libopencv --enable-libx264 --enable-shared
  libavutil      55. 78.100 / 55. 78.100
  libavcodec     57.107.100 / 57.107.100
  libavformat    57. 83.100 / 57. 83.100
  libavdevice    57. 10.100 / 57. 10.100
  libavfilter     6.107.100 /  6.107.100
  libavresample   3.  7.  0 /  3.  7.  0
  libswscale      4.  8.100 /  4.  8.100
  libswresample   2.  9.100 /  2.  9.100
  libpostproc    54.  7.100 / 54.  7.100
[rawvideo @ 0x55ff4a165a20] Estimating duration from bitrate, this may be inaccurate
Input #0, rawvideo, from '../../SVC-Encoder-20220109T061506Z-001/SVC-Encoder/Dataset/RollerCoaster/ERP_8x8/tile_yuv/Tile_36_480x240.yuv':
  Duration: 00:00:10.00, start: 0.000000, bitrate: 41472 kb/s
    Stream #0:0: Video: rawvideo (I420 / 0x30323449), yuv420p, 480x240, 41472 kb/s, 30 tbr, 30 tbn, 30 tbc
Stream mapping:
  Stream #0:0 -> #0:0 (rawvideo (native) -> h264 (libx264))
Press [q] to stop, [?] for help
[libx264 @ 0x55ff4a172c60] using cpu capabilities: MMX2 SSE2Fast LZCNT SSSE3 SSE4.2 AVX
[libx264 @ 0x55ff4a172c60] profile High, level 2.1
Output #0, rawvideo, to 'RollerCoaster_Tile_36_480x240_x264_QP_36.h264':
  Metadata:
    encoder         : Lavf57.83.100
    Stream #0:0: Video: h264 (libx264), yuv420p, 480x240, q=-1--1, 30 fps, 30 tbn, 30 tbc
    Metadata:
      encoder         : Lavc57.107.100 libx264
    Side data:
      cpb: bitrate max/min/avg: 0/0/0 buffer size: 0 vbv_delay: -1
frame=  190 fps=0.0 q=42.0 PSNR=Y:nan U:nan V:nan *:nan size=      58kB time=00:00:04.90 bitrate=  96.4kbits/s speed=9.78x    frame=  300 fps=0.0 q=42.0 LPSNR=Y:inf U:inf V:inf *:inf size=     113kB time=00:00:09.93 bitrate=  93.5kbits/s speed=11.7x    
video:113kB audio:0kB subtitle:0kB other streams:0kB global headers:0kB muxing overhead: 0.000000%
[libx264 @ 0x55ff4a172c60] frame I:2     Avg QP:34.30  size:  4722  PSNR Mean Y:35.20 U:40.90 V:43.77 Avg:36.54 Global:36.52
[libx264 @ 0x55ff4a172c60] frame P:76    Avg QP:35.86  size:   862  PSNR Mean Y:33.87 U:40.96 V:43.56 Avg:35.31 Global:35.29
[libx264 @ 0x55ff4a172c60] frame B:222   Avg QP:41.46  size:   185  PSNR Mean Y:33.60 U:40.96 V:43.57 Avg:35.06 Global:35.05
[libx264 @ 0x55ff4a172c60] consecutive B-frames:  1.0%  0.7%  1.0% 97.3%
[libx264 @ 0x55ff4a172c60] mb I  I16..4: 22.3% 53.8% 23.9%
[libx264 @ 0x55ff4a172c60] mb P  I16..4:  1.0%  2.7%  0.1%  P16..4: 33.8% 12.5%  2.3%  0.0%  0.0%    skip:47.5%
[libx264 @ 0x55ff4a172c60] mb B  I16..4:  0.0%  0.0%  0.0%  B16..8: 25.1%  1.4%  0.0%  direct: 0.0%  skip:73.4%  L0:35.1% L1:63.2% BI: 1.7%
[libx264 @ 0x55ff4a172c60] 8x8 transform intra:63.0% inter:78.8%
[libx264 @ 0x55ff4a172c60] coded y,uvDC,uvAC intra: 23.4% 35.7% 10.7% inter: 2.5% 3.0% 0.0%
[libx264 @ 0x55ff4a172c60] i16 v,h,dc,p: 27% 33% 31%  9%
[libx264 @ 0x55ff4a172c60] i8 v,h,dc,ddl,ddr,vr,hd,vl,hu: 15%  6% 62%  1%  3%  5%  6%  1%  2%
[libx264 @ 0x55ff4a172c60] i4 v,h,dc,ddl,ddr,vr,hd,vl,hu: 19% 18% 18%  2% 13% 13% 13%  2%  4%
[libx264 @ 0x55ff4a172c60] i8c dc,h,v,p: 73% 11% 13%  3%
[libx264 @ 0x55ff4a172c60] Weighted P-Frames: Y:0.0% UV:0.0%
[libx264 @ 0x55ff4a172c60] ref P L0: 65.9% 16.7% 13.7%  3.7%
[libx264 @ 0x55ff4a172c60] ref B L0: 89.8%  8.7%  1.4%
[libx264 @ 0x55ff4a172c60] ref B L1: 93.2%  6.8%
[libx264 @ 0x55ff4a172c60] PSNR Mean Y:33.675 U:40.957 V:43.569 Avg:35.132 Global:35.114 kb/s:92.91
